<?xml version="1.0" encoding="UTF-8" standalone="no"?>
<!DOCTYPE svg PUBLIC "-//W3C//DTD SVG 1.1//EN" "http://www.w3.org/Graphics/SVG/1.1/DTD/svg11.dtd">
<svg width="100%" height="100%" viewBox="0 0 2000 500" version="1.1" xmlns="http://www.w3.org/2000/svg" xmlns:xlink="http://www.w3.org/1999/xlink" xml:space="preserve" xmlns:serif="http://www.serif.com/" style="fill-rule:evenodd;clip-rule:evenodd;stroke-linejoin:round;stroke-miterlimit:1.41421;">
    <style type="text/css">
        .circuit-background path {
            fill: rgba(227,24,55,0.3);
            fill-rule: nonzero;
        }
    </style>
    <g class="circuit-background">
        <path d="M604.705,247.13L466.446,247.13L412.171,190.943C412.146,190.914 412.117,190.885 412.093,190.86C409.889,188.622 406.348,188.656 404.188,190.943C402.023,193.225 402.062,196.888 404.266,199.126L460.18,257.01C461.229,258.097 462.648,258.707 464.13,258.707L604.705,258.707C607.26,268.962 616.214,276.111 626.445,276.072C638.797,276.024 648.769,265.617 648.725,252.831C648.677,240.045 638.626,229.716 626.274,229.765C616.106,229.799 607.241,236.933 604.705,247.13M615.092,252.919C615.092,246.525 620.1,241.342 626.274,241.342C632.452,241.342 637.461,246.525 637.461,252.919C637.461,259.312 632.452,264.495 626.274,264.495C620.1,264.491 615.097,259.312 615.092,252.919"/>
        <path d="M183.867,232.638C196.219,232.687 206.27,222.358 206.313,209.572C206.362,196.781 196.385,186.38 184.033,186.331C173.807,186.292 164.853,193.441 162.298,203.696L88.814,203.696C85.727,203.696 83.225,206.286 83.225,209.485C83.225,212.684 85.727,215.273 88.814,215.273L162.298,215.273C164.834,225.47 173.699,232.604 183.867,232.638M183.867,197.908C190.04,197.908 195.049,203.091 195.049,209.485C195.049,215.878 190.04,221.061 183.867,221.061C177.693,221.061 172.685,215.878 172.685,209.485C172.69,203.091 177.693,197.913 183.867,197.908"/>
        <path d="M1001.06,66.034C990.887,66.068 982.022,73.203 979.486,83.399L894.82,83.399C893.337,83.399 891.918,84.009 890.87,85.096L847.776,129.707L749.451,129.707C747.969,129.707 746.545,130.316 745.496,131.404L691.226,187.596L570.532,187.596C567.445,187.596 564.944,190.185 564.944,193.384C564.944,196.578 567.445,199.173 570.532,199.173L845.294,199.173C848.322,211.505 860.436,218.962 872.349,215.831C880.254,213.749 886.427,207.355 888.437,199.173L950.734,199.173C952.216,199.173 953.64,198.563 954.689,197.476L988.234,162.745C990.395,160.463 990.36,156.796 988.156,154.557C985.981,152.353 982.504,152.353 980.329,154.557L948.418,187.596L888.437,187.596C885.408,175.258 873.3,167.802 861.387,170.938C853.477,173.015 847.303,179.408 845.294,187.596L707.035,187.596L751.768,141.284L850.093,141.284C851.575,141.284 852.999,140.674 854.047,139.591L897.136,94.976L979.486,94.976C982.592,107.333 994.783,114.736 1006.72,111.522C1018.65,108.304 1025.81,95.678 1022.7,83.326C1020.13,73.13 1011.23,66.02 1001.06,66.034M866.868,181.807C873.041,181.807 878.05,186.986 878.05,193.384C878.05,199.777 873.041,204.961 866.868,204.961C860.689,204.961 855.686,199.777 855.686,193.384C855.686,186.991 860.694,181.807 866.868,181.807M1001.06,100.765C994.881,100.765 989.873,95.581 989.873,89.188C989.873,82.795 994.881,77.611 1001.06,77.611C1007.23,77.611 1012.24,82.795 1012.24,89.188C1012.23,95.581 1007.23,100.76 1001.06,100.765"/>
        <path d="M665.414,490.249L710.142,490.249C713.233,490.249 715.735,487.659 715.735,484.46C715.735,481.261 713.233,478.672 710.142,478.672L667.731,478.672L622.998,432.364L682.984,432.364C685.018,440.518 691.167,446.887 699.048,448.993C711.005,452.192 723.201,444.746 726.293,432.364C729.379,419.983 722.187,407.353 710.229,404.154C698.267,400.96 686.071,408.406 682.984,420.788L410.534,420.788L367.445,376.172C366.397,375.09 364.973,374.48 363.49,374.48L321.074,374.48L376.988,316.591L461.815,316.591L516.091,372.783C517.139,373.871 518.558,374.48 520.046,374.48L710.142,374.48C713.233,374.48 715.735,371.886 715.735,368.692C715.735,365.493 713.233,362.903 710.142,362.903L567.299,362.903L611.826,316.591L687.778,316.591C690.865,316.591 693.371,314.002 693.371,310.803C693.371,307.609 690.865,305.014 687.778,305.014L609.5,305.014C608.013,305.014 606.589,305.629 605.541,306.721L551.519,362.903L522.357,362.903L468.086,306.711C467.038,305.624 465.614,305.014 464.131,305.014L374.672,305.014C373.189,305.014 371.766,305.624 370.717,306.711L305.265,374.48L251.667,374.48C248.58,374.48 246.074,377.07 246.074,380.269C246.074,383.463 248.58,386.057 251.667,386.057L361.174,386.057L404.267,430.667C405.316,431.755 406.735,432.364 408.217,432.364L607.189,432.364L661.459,488.552C662.508,489.639 663.932,490.249 665.414,490.249M693.371,426.576C693.371,420.183 698.375,414.999 704.553,414.999C710.727,414.999 715.735,420.183 715.735,426.576C715.735,432.969 710.727,438.153 704.553,438.153C698.379,438.148 693.376,432.969 693.371,426.576"/>
        <path d="M385.854,263.657L321.075,263.657L311.531,273.537C309.366,275.824 305.831,275.858 303.627,273.62C301.418,271.382 301.383,267.719 303.544,265.437C303.573,265.408 303.597,265.379 303.627,265.354L314.808,253.777C315.857,252.69 317.276,252.08 318.758,252.08L385.854,252.08C388.941,252.08 391.448,254.67 391.448,257.869C391.448,261.068 388.941,263.657 385.854,263.657"/>
        <path d="M325.123,455.477L186.864,455.477L132.588,399.29C132.564,399.261 132.535,399.231 132.51,399.207C130.306,396.969 126.766,397.003 124.606,399.29C122.445,401.572 122.479,405.234 124.684,407.473L180.598,465.357C181.646,466.444 183.065,467.054 184.548,467.054L325.123,467.054C327.678,477.309 336.631,484.458 346.862,484.419C359.214,484.37 369.187,473.969 369.143,461.178C369.094,448.392 359.044,438.063 346.692,438.112C336.524,438.146 327.658,445.28 325.123,455.477M335.51,461.265C335.51,454.872 340.518,449.689 346.692,449.689C352.87,449.689 357.878,454.872 357.878,461.265C357.878,467.659 352.87,472.842 346.692,472.842C340.518,472.837 335.515,467.659 335.51,461.265"/>
        <path d="M1213.82,264.472C1203.65,264.506 1194.78,271.64 1192.25,281.837L1107.58,281.837C1106.1,281.837 1104.68,282.447 1103.63,283.534L1060.54,328.145L962.212,328.145C960.73,328.145 959.306,328.754 958.257,329.842L903.987,386.034L783.293,386.034C780.206,386.034 777.705,388.623 777.705,391.822C777.705,395.016 780.206,397.61 783.293,397.61L1058.06,397.61C1061.08,409.943 1073.2,417.399 1085.11,414.269C1093.02,412.186 1099.19,405.793 1101.2,397.61L1163.5,397.61C1164.98,397.61 1166.4,397.001 1167.45,395.913L1201,361.183C1203.16,358.896 1203.12,355.234 1200.92,352.995C1198.74,350.791 1195.27,350.791 1193.09,352.995L1161.18,386.034L1101.2,386.034C1098.17,373.696 1086.06,366.24 1074.15,369.375C1066.24,371.453 1060.06,377.846 1058.06,386.034L919.796,386.034L964.529,339.721L1062.85,339.721C1064.34,339.721 1065.76,339.112 1066.81,338.024L1109.9,293.414L1192.25,293.414C1195.35,305.771 1207.55,313.174 1219.48,309.96C1231.41,306.742 1238.57,294.116 1235.46,281.759C1232.89,271.567 1223.99,264.453 1213.82,264.472M1079.63,380.24C1085.8,380.24 1090.81,385.424 1090.81,391.822C1090.81,398.215 1085.8,403.399 1079.63,403.399C1073.45,403.399 1068.45,398.215 1068.45,391.822C1068.45,385.429 1073.45,380.245 1079.63,380.24M1213.82,299.203C1207.64,299.203 1202.63,294.019 1202.63,287.626C1202.63,281.233 1207.64,276.049 1213.82,276.049C1219.99,276.049 1225,281.233 1225,287.626C1224.99,294.019 1219.99,299.198 1213.82,299.203"/>
        <path d="M978.712,252.101L913.932,252.101L904.389,242.221C902.224,239.939 898.688,239.9 896.484,242.138C894.275,244.376 894.241,248.039 896.401,250.321C896.431,250.35 896.455,250.379 896.484,250.404L907.666,261.981C908.715,263.068 910.134,263.678 911.616,263.678L978.712,263.678C981.799,263.678 984.305,261.088 984.305,257.889C984.305,254.69 981.799,252.101 978.712,252.101"/>
        <path d="M1337.45,261.577L1402.23,261.577L1411.78,271.457C1413.94,273.739 1417.48,273.778 1419.68,271.54C1421.89,269.301 1421.92,265.639 1419.76,263.357C1419.74,263.327 1419.71,263.298 1419.68,263.274L1408.5,251.697C1407.45,250.61 1406.03,250 1404.55,250L1337.45,250C1334.37,250 1331.86,252.589 1331.86,255.788C1331.86,258.987 1334.37,261.577 1337.45,261.577"/>
        <path d="M833.279,328.169C845.632,328.218 855.682,317.89 855.726,305.104C855.775,292.313 845.797,281.911 833.445,281.862C823.219,281.823 814.266,288.972 811.711,299.227L738.226,299.227C735.14,299.227 732.638,301.817 732.638,305.016C732.638,308.215 735.14,310.804 738.226,310.804L811.711,310.804C814.246,321.001 823.112,328.135 833.279,328.169M833.279,293.439C839.453,293.439 844.461,298.623 844.461,305.016C844.461,311.409 839.453,316.593 833.279,316.593C827.106,316.593 822.097,311.409 822.097,305.016C822.102,298.623 827.106,293.444 833.279,293.439"/>
        <path d="M1001.35,417.852L923.075,417.852C921.592,417.852 920.168,418.461 919.125,419.549L864.849,475.736L766.524,475.736C763.433,475.736 760.931,478.33 760.931,481.524C760.931,484.723 763.433,487.313 766.524,487.313L934.257,487.313C937.348,487.313 939.85,484.723 939.85,481.524C939.85,478.33 937.348,475.736 934.257,475.736L880.659,475.736L925.391,429.429L1001.35,429.429C1004.44,429.429 1006.95,426.839 1006.95,423.64C1006.95,420.441 1004.44,417.852 1001.35,417.852"/>
        <path d="M1235.93,462.083C1248.28,462.132 1258.33,451.804 1258.38,439.017C1258.42,426.226 1248.45,415.825 1236.1,415.776C1225.87,415.737 1216.92,422.886 1214.36,433.141L1140.88,433.141C1137.79,433.141 1135.29,435.731 1135.29,438.93C1135.29,442.129 1137.79,444.718 1140.88,444.718L1214.36,444.718C1216.9,454.915 1225.76,462.049 1235.93,462.083M1235.93,427.353C1242.1,427.353 1247.11,432.537 1247.11,438.93C1247.11,445.323 1242.1,450.506 1235.93,450.506C1229.75,450.506 1224.75,445.323 1224.75,438.93C1224.75,432.537 1229.76,427.358 1235.93,427.353"/>
        <path d="M1923.73,83.007C1936.08,83.055 1946.13,72.727 1946.17,59.941C1946.22,47.15 1936.25,36.748 1923.89,36.699C1913.67,36.66 1904.71,43.809 1902.16,54.065L1828.67,54.065C1825.59,54.065 1823.09,56.654 1823.09,59.853C1823.09,63.052 1825.59,65.641 1828.67,65.641L1902.16,65.641C1904.69,75.838 1913.56,82.972 1923.73,83.007M1923.73,48.276C1929.9,48.276 1934.91,53.46 1934.91,59.853C1934.91,66.246 1929.9,71.43 1923.73,71.43C1917.55,71.43 1912.55,66.246 1912.55,59.853C1912.55,53.46 1917.55,48.281 1923.73,48.276"/>
        <path d="M523.86,9.751C513.692,9.786 504.827,16.92 502.291,27.117L417.625,27.117C416.143,27.117 414.724,27.726 413.675,28.814L370.582,73.424L272.256,73.424C270.774,73.424 269.35,74.034 268.302,75.121L214.031,131.313L93.337,131.313C90.251,131.313 87.749,133.903 87.749,137.102C87.749,140.296 90.251,142.89 93.337,142.89L368.099,142.89C371.128,155.223 383.241,162.679 395.154,159.548C403.059,157.466 409.233,151.073 411.242,142.89L473.539,142.89C475.022,142.89 476.446,142.28 477.494,141.193L511.04,106.462C513.2,104.18 513.166,100.513 510.962,98.275C508.787,96.071 505.31,96.071 503.135,98.275L471.223,131.313L411.242,131.313C408.214,118.976 396.105,111.519 384.192,114.655C376.282,116.732 370.109,123.125 368.099,131.313L229.841,131.313L274.573,85.001L372.898,85.001C374.38,85.006 375.804,84.391 376.853,83.309L419.942,38.694L502.291,38.694C505.397,51.051 517.594,58.458 529.526,55.24C541.459,52.021 548.613,39.396 545.502,27.044C542.937,16.847 534.037,9.737 523.86,9.751M389.673,125.525C395.847,125.525 400.855,130.708 400.855,137.102C400.855,143.495 395.847,148.678 389.673,148.678C383.495,148.678 378.491,143.495 378.491,137.102C378.491,130.708 383.499,125.525 389.673,125.525M523.86,44.482C517.686,44.482 512.678,39.298 512.678,32.905C512.678,26.512 517.686,21.328 523.86,21.328C530.038,21.328 535.042,26.512 535.042,32.905C535.037,39.298 530.034,44.477 523.86,44.482"/>
        <path d="M1515.44,290.586C1525.61,290.552 1534.47,283.418 1537.01,273.221L1621.67,273.221C1623.16,273.221 1624.58,272.611 1625.62,271.524L1668.72,226.913L1767.04,226.913C1768.53,226.913 1769.95,226.304 1771,225.216L1825.27,169.024L1945.96,169.024C1949.05,169.024 1951.55,166.435 1951.55,163.236C1951.55,160.042 1949.05,157.448 1945.96,157.448L1671.2,157.448C1668.17,145.115 1656.06,137.659 1644.14,140.789C1636.24,142.872 1630.07,149.265 1628.06,157.448L1565.76,157.448C1564.28,157.448 1562.85,158.057 1561.81,159.145L1528.26,193.875C1526.1,196.157 1526.13,199.824 1528.34,202.063C1530.51,204.267 1533.99,204.267 1536.16,202.063L1568.08,169.024L1628.06,169.024C1631.09,181.362 1643.19,188.818 1655.11,185.683C1663.02,183.605 1669.19,177.212 1671.2,169.024L1809.46,169.024L1764.73,215.337L1666.4,215.337C1664.92,215.332 1663.5,215.946 1662.45,217.029L1619.36,261.644L1537.01,261.644C1533.9,249.287 1521.7,241.879 1509.77,245.098C1497.84,248.316 1490.69,260.942 1493.8,273.294C1496.36,283.491 1505.26,290.601 1515.44,290.586M1649.63,174.813C1643.45,174.813 1638.44,169.629 1638.44,163.236C1638.44,156.843 1643.45,151.659 1649.63,151.659C1655.8,151.659 1660.81,156.843 1660.81,163.236C1660.81,169.629 1655.8,174.813 1649.63,174.813M1515.44,255.855C1521.61,255.855 1526.62,261.039 1526.62,267.432C1526.62,273.825 1521.61,279.009 1515.44,279.009C1509.26,279.009 1504.26,273.825 1504.26,267.432C1504.26,261.039 1509.27,255.86 1515.44,255.855"/>
        <path d="M1888.79,357.582C1885.7,357.582 1883.2,354.993 1883.2,351.794C1883.2,348.595 1885.7,346.005 1888.79,346.005L1955.89,346.005C1958.97,346.005 1961.48,348.595 1961.48,351.794C1961.48,354.993 1958.97,357.582 1955.89,357.582L1888.79,357.582Z"/>
        <path d="M1776.31,436.055C1763.96,436.007 1753.91,446.335 1753.87,459.121C1753.82,471.912 1763.79,482.314 1776.15,482.363C1786.37,482.402 1795.33,475.253 1797.88,464.997L1938.46,464.997C1939.94,464.997 1941.36,464.388 1942.41,463.3L1998.32,405.416C2000.53,403.178 2000.56,399.516 1998.4,397.234C1996.24,394.946 1992.7,394.912 1990.5,397.151C1990.47,397.175 1990.44,397.204 1990.41,397.234L1936.14,453.421L1797.88,453.421C1795.35,443.224 1786.48,436.09 1776.31,436.055M1776.31,470.786C1770.14,470.786 1765.13,465.602 1765.13,459.209C1765.13,452.816 1770.14,447.632 1776.31,447.632C1782.49,447.632 1787.49,452.816 1787.49,459.209C1787.49,465.602 1782.49,470.781 1776.31,470.786"/>
        <path d="M44.149,50.312C31.797,50.263 21.746,60.592 21.702,73.378C21.653,86.169 31.631,96.571 43.983,96.619C54.209,96.658 63.162,89.509 65.718,79.254L206.293,79.254C207.775,79.254 209.199,78.645 210.248,77.557L266.157,19.673C268.366,17.435 268.4,13.772 266.24,11.49C264.079,9.203 260.539,9.169 258.335,11.407C258.306,11.432 258.281,11.461 258.252,11.49L203.981,67.677L65.718,67.677C63.182,57.481 54.316,50.346 44.149,50.312M44.149,85.043C37.975,85.043 32.967,79.859 32.967,73.466C32.967,67.073 37.975,61.889 44.149,61.889C50.322,61.889 55.331,67.073 55.331,73.466C55.326,79.859 50.322,85.038 44.149,85.043"/>
        <path d="M1316.15,285.594L1271.42,285.594C1268.33,285.594 1265.83,288.184 1265.83,291.383C1265.83,294.582 1268.33,297.171 1271.42,297.171L1313.83,297.171L1358.57,343.478L1298.59,343.478C1296.55,335.325 1290.4,328.956 1282.52,326.849C1270.56,323.65 1258.36,331.097 1255.27,343.478C1252.19,355.86 1259.38,368.49 1271.34,371.689C1283.3,374.883 1295.49,367.437 1298.59,355.055L1571.03,355.055L1614.12,399.67C1615.17,400.753 1616.59,401.367 1618.08,401.362L1660.49,401.362L1604.58,459.251L1519.75,459.251L1465.47,403.059C1464.43,401.977 1463.01,401.362 1461.52,401.362L1271.42,401.362C1268.33,401.362 1265.83,403.957 1265.83,407.151C1265.83,410.35 1268.33,412.944 1271.42,412.944L1414.27,412.944L1369.74,459.251L1293.79,459.251C1290.7,459.251 1288.19,461.841 1288.19,465.04C1288.19,468.234 1290.7,470.828 1293.79,470.828L1372.07,470.828C1373.55,470.828 1374.98,470.214 1376.03,469.122L1430.05,412.944L1459.21,412.944L1513.48,469.131C1514.53,470.219 1515.95,470.828 1517.43,470.828L1606.89,470.828C1608.38,470.828 1609.8,470.219 1610.85,469.131L1676.3,401.362L1729.9,401.362C1732.99,401.362 1735.49,398.773 1735.49,395.574C1735.49,392.38 1732.99,389.786 1729.9,389.786L1620.39,389.786L1577.3,345.175C1576.25,344.088 1574.83,343.478 1573.35,343.478L1374.38,343.478L1320.11,287.291C1319.06,286.204 1317.63,285.594 1316.15,285.594M1288.19,349.267C1288.19,355.66 1283.19,360.844 1277.01,360.844C1270.84,360.844 1265.83,355.66 1265.83,349.267C1265.83,342.874 1270.84,337.69 1277.01,337.69C1283.19,337.695 1288.19,342.874 1288.19,349.267"/>
        <path d="M1897.29,273.531L1819.01,273.531C1817.53,273.531 1816.11,274.141 1815.06,275.228L1760.79,331.415L1662.46,331.415C1659.37,331.415 1656.87,334.01 1656.87,337.204C1656.87,340.403 1659.37,342.992 1662.46,342.992L1830.2,342.992C1833.29,342.992 1835.79,340.403 1835.79,337.204C1835.79,334.01 1833.29,331.415 1830.2,331.415L1776.6,331.415L1821.33,285.108L1897.29,285.108C1900.38,285.108 1902.88,282.519 1902.88,279.32C1902.88,276.121 1900.38,273.531 1897.29,273.531"/>
        <path d="M1103.73,9.751L1059,9.751C1055.91,9.751 1053.41,12.341 1053.41,15.54C1053.41,18.739 1055.91,21.328 1059,21.328L1101.41,21.328L1146.14,67.636L1086.16,67.636C1084.12,59.482 1077.98,53.113 1070.1,51.007C1058.14,47.808 1045.94,55.254 1042.85,67.636C1039.76,80.017 1046.96,92.647 1058.91,95.846C1070.88,99.04 1083.07,91.594 1086.16,79.212L1358.61,79.212L1401.7,123.828C1402.75,124.91 1404.17,125.525 1405.65,125.52L1448.07,125.52L1392.15,183.409L1307.33,183.409L1253.05,127.217C1252,126.134 1250.59,125.52 1249.1,125.52L1059,125.52C1055.91,125.52 1053.41,128.114 1053.41,131.308C1053.41,134.507 1055.91,137.102 1059,137.102L1201.84,137.102L1157.32,183.409L1081.37,183.409C1078.28,183.409 1075.77,185.998 1075.77,189.197C1075.77,192.391 1078.28,194.986 1081.37,194.986L1159.64,194.986C1161.13,194.986 1162.55,194.371 1163.61,193.279L1217.62,137.102L1246.79,137.102L1301.06,193.289C1302.11,194.376 1303.53,194.986 1305.01,194.986L1394.47,194.986C1395.95,194.986 1397.38,194.376 1398.43,193.289L1463.88,125.52L1517.48,125.52C1520.57,125.52 1523.07,122.93 1523.07,119.731C1523.07,116.537 1520.57,113.943 1517.48,113.943L1407.97,113.943L1364.88,69.333C1363.83,68.245 1362.41,67.636 1360.92,67.636L1161.95,67.636L1107.68,11.449C1106.63,10.361 1105.21,9.751 1103.73,9.751M1075.77,73.424C1075.77,79.817 1070.77,85.001 1064.59,85.001C1058.42,85.001 1053.41,79.817 1053.41,73.424C1053.41,67.031 1058.42,61.847 1064.59,61.847C1070.76,61.852 1075.77,67.031 1075.77,73.424"/>
        <path d="M1742.57,15.544L1664.29,15.544C1662.81,15.544 1661.38,16.153 1660.34,17.241L1606.06,73.428L1507.74,73.428C1504.65,73.428 1502.14,76.022 1502.14,79.216C1502.14,82.415 1504.65,85.005 1507.74,85.005L1675.47,85.005C1678.56,85.005 1681.06,82.415 1681.06,79.216C1681.06,76.022 1678.56,73.428 1675.47,73.428L1621.87,73.428L1666.6,27.121L1742.57,27.121C1745.65,27.121 1748.16,24.531 1748.16,21.332C1748.16,18.133 1745.65,15.544 1742.57,15.544"/>
        <path d="M240.422,281.861L162.144,281.861C160.661,281.861 159.238,282.471 158.194,283.558L103.918,339.745L5.593,339.745C2.502,339.745 0,342.34 0,345.534C0,348.733 2.502,351.322 5.593,351.322L173.326,351.322C176.417,351.322 178.919,348.733 178.919,345.534C178.919,342.34 176.417,339.745 173.326,339.745L119.728,339.745L164.46,293.438L240.422,293.438C243.508,293.438 246.015,290.849 246.015,287.65C246.015,284.451 243.508,281.861 240.422,281.861"/>
        <path d="M811.963,32.906L733.685,32.906C732.203,32.906 730.779,33.515 729.735,34.603L675.46,90.79L577.135,90.79C574.043,90.79 571.541,93.384 571.541,96.578C571.541,99.777 574.043,102.367 577.135,102.367L744.867,102.367C747.959,102.367 750.461,99.777 750.461,96.578C750.461,93.384 747.959,90.79 744.867,90.79L691.27,90.79L736.002,44.482L811.963,44.482C815.05,44.482 817.556,41.893 817.556,38.694C817.556,35.495 815.05,32.906 811.963,32.906"/>
    </g>
</svg>
